<?xml version="1.0" standalone="no"?>
<!DOCTYPE svg PUBLIC "-//W3C//DTD SVG 20010904//EN"
 "http://www.w3.org/TR/2001/REC-SVG-20010904/DTD/svg10.dtd">
<svg version="1.0" xmlns="http://www.w3.org/2000/svg"
 width="1200.000000pt" height="675.000000pt" viewBox="0 0 1200.000000 675.000000"
 preserveAspectRatio="xMidYMid meet">

<g transform="translate(0.000000,675.000000) scale(0.100000,-0.100000)"
fill="#000000" stroke="none">
<path d="M10770 6281 c-465 -257 -1263 -698 -1775 -980 -511 -283 -1339 -740
-1840 -1016 -500 -276 -1304 -719 -1785 -985 -481 -265 -1284 -709 -1785 -985
-1873 -1034 -2732 -1508 -3152 -1740 l-433 -238 0 -169 0 -168 163 0 162 0
880 486 c484 267 1296 715 1805 996 509 281 1335 737 1835 1013 501 276 1304
719 1785 985 481 265 1285 709 1785 985 1873 1034 2732 1508 3153 1740 l432
238 0 154 0 153 -192 -1 -193 0 -845 -468z"/>
<path d="M4285 6170 c-3 -5 -19 -10 -35 -10 -16 0 -32 -4 -35 -10 -3 -5 -19
-10 -35 -10 -16 0 -32 -4 -35 -10 -3 -5 -19 -10 -35 -10 -16 0 -32 -5 -36 -11
-3 -6 -16 -9 -28 -7 -12 3 -28 -1 -34 -8 -8 -9 -24 -11 -43 -7 -19 4 -34 1
-38 -6 -9 -13 -109 -41 -127 -34 -6 2 -15 0 -19 -6 -3 -6 -19 -11 -36 -11 -16
0 -29 -4 -29 -10 0 -5 -16 -10 -35 -10 -19 0 -35 -4 -35 -9 0 -8 -22 -15 -98
-28 -18 -3 -35 -9 -38 -14 -3 -5 -16 -9 -29 -9 -13 0 -27 -5 -30 -11 -4 -5
-12 -8 -18 -6 -7 2 -23 -1 -37 -8 -44 -22 -89 -33 -109 -28 -10 3 -22 0 -25
-6 -4 -6 -16 -11 -27 -11 -11 0 -27 -7 -36 -15 -9 -9 -23 -13 -34 -10 -11 4
-19 2 -19 -4 0 -6 -11 -11 -24 -11 -13 0 -36 -6 -51 -14 -15 -8 -34 -12 -41
-9 -8 3 -14 0 -14 -6 0 -6 -11 -11 -25 -11 -14 0 -33 -4 -43 -9 -9 -5 -37 -14
-62 -21 -25 -7 -53 -16 -62 -21 -10 -5 -31 -9 -47 -9 -17 0 -33 -5 -37 -11 -3
-6 -17 -8 -30 -5 -14 4 -24 2 -24 -4 0 -5 -16 -10 -35 -10 -19 0 -35 -4 -35
-10 0 -5 -13 -10 -29 -10 -17 0 -33 -4 -36 -10 -3 -5 -19 -10 -36 -10 -16 0
-29 -4 -29 -10 0 -5 -18 -10 -40 -10 -22 0 -40 -4 -40 -10 0 -5 -13 -10 -29
-10 -17 0 -33 -4 -36 -10 -3 -5 -19 -10 -35 -10 -16 0 -32 -4 -35 -10 -3 -5
-17 -10 -30 -10 -13 0 -27 -5 -30 -11 -4 -5 -14 -8 -23 -6 -10 2 -30 -3 -45
-10 -16 -8 -35 -12 -42 -9 -7 2 -21 -2 -32 -9 -10 -8 -44 -17 -75 -21 -32 -4
-58 -11 -58 -15 0 -5 -13 -9 -30 -9 -16 0 -30 -4 -30 -10 0 -5 -13 -10 -29
-10 -17 0 -33 -4 -36 -10 -3 -5 -21 -10 -40 -10 -19 0 -37 -4 -40 -10 -3 -5
-17 -10 -30 -10 -13 0 -27 -4 -30 -10 -3 -5 -17 -10 -30 -10 -13 0 -27 -4 -30
-10 -3 -5 -17 -10 -30 -10 -13 0 -26 -4 -30 -9 -3 -5 -19 -9 -35 -9 -16 1 -36
-5 -44 -11 -8 -7 -24 -10 -34 -7 -13 5 -22 1 -26 -10 -4 -11 -13 -14 -31 -10
-14 4 -25 2 -25 -3 0 -11 -100 -42 -112 -34 -5 3 -17 -2 -26 -10 -9 -8 -42
-19 -72 -24 -38 -6 -56 -13 -58 -24 -3 -14 7 -17 63 -15 39 0 69 -4 73 -10 4
-7 32 -11 63 -11 31 1 63 -4 71 -11 11 -9 17 -9 26 0 9 9 12 9 12 1 0 -8 17
-10 52 -6 32 3 65 0 83 -8 17 -7 52 -11 79 -10 27 1 54 -3 60 -8 6 -5 43 -12
81 -15 39 -3 113 -10 165 -16 52 -5 134 -13 183 -16 48 -4 90 -11 93 -15 3 -5
34 -9 69 -9 35 0 67 -5 70 -10 4 -6 34 -10 68 -10 67 1 97 -3 112 -12 6 -3 46
-6 89 -6 57 -1 84 -6 95 -16 13 -14 12 -16 -5 -21 -10 -4 -29 -11 -42 -16 -13
-5 -36 -9 -52 -9 -16 0 -32 -5 -36 -11 -3 -6 -17 -8 -29 -5 -14 4 -25 1 -27
-6 -3 -7 -16 -13 -29 -13 -14 -1 -30 -5 -37 -9 -21 -13 -105 -35 -114 -30 -4
3 -15 -1 -23 -9 -8 -9 -24 -13 -35 -10 -11 3 -20 0 -20 -6 0 -6 -13 -11 -29
-11 -17 0 -33 -4 -36 -10 -3 -5 -28 -10 -55 -10 -27 0 -52 -4 -55 -10 -3 -5
-19 -10 -35 -10 -16 0 -32 -5 -36 -11 -3 -6 -15 -9 -25 -6 -10 3 -23 -1 -29
-8 -12 -14 -82 -30 -118 -26 -12 1 -30 -5 -39 -14 -9 -10 -26 -15 -40 -12 -12
2 -23 1 -23 -4 0 -4 -26 -13 -57 -19 -32 -6 -71 -16 -88 -22 -16 -5 -42 -10
-57 -9 -16 1 -28 -3 -28 -9 0 -5 -11 -10 -24 -10 -14 0 -28 -4 -31 -10 -3 -5
-24 -10 -45 -10 -21 0 -41 -4 -44 -9 -3 -4 -23 -11 -44 -14 -22 -2 -54 -11
-73 -19 -46 -21 -136 -41 -148 -34 -5 3 -11 -1 -15 -9 -7 -20 4 -25 55 -20 24
2 87 5 139 6 56 2 101 7 110 14 16 14 57 24 155 41 22 4 48 13 57 21 9 9 25
12 36 8 11 -3 23 -1 27 5 3 5 19 10 35 10 16 0 32 5 35 10 3 6 19 10 34 10 15
0 31 4 37 8 14 13 88 32 122 32 17 0 34 5 37 10 3 6 19 10 35 10 16 0 32 5 35
10 3 6 17 10 30 10 13 0 27 4 30 10 3 5 16 9 28 8 12 0 34 4 49 10 15 6 36 9
47 7 12 -2 21 0 21 6 0 5 12 9 26 9 14 0 32 7 41 15 8 9 23 13 33 10 10 -3 21
-1 25 5 3 5 28 10 56 10 27 0 49 5 49 10 0 6 16 10 35 10 19 0 35 5 35 10 0 6
11 10 24 10 14 0 28 5 31 10 3 6 17 10 30 10 13 0 27 5 30 10 3 6 22 10 41 10
19 0 34 5 34 10 0 6 8 10 18 10 9 0 43 9 75 20 32 10 64 17 73 13 8 -3 23 2
34 12 12 11 26 14 39 10 12 -3 21 -2 21 2 0 5 12 14 28 20 25 10 23 11 -25 12
-28 1 -55 6 -58 11 -3 6 -30 10 -60 10 -30 0 -57 5 -60 10 -3 6 -31 10 -61 10
-30 0 -54 5 -54 10 0 6 -33 10 -79 10 -44 0 -82 4 -85 9 -3 5 -28 9 -56 9 -28
0 -57 5 -65 12 -10 8 -31 11 -59 7 -30 -4 -49 -2 -65 10 -15 10 -35 14 -60 10
-21 -2 -45 -1 -53 4 -8 5 -49 11 -89 14 -72 5 -132 13 -269 35 -65 11 -156 23
-260 35 -62 8 -68 11 -52 27 10 10 31 15 128 32 12 2 31 9 42 15 11 6 32 11
46 11 14 0 28 5 31 10 4 6 10 8 15 5 5 -3 26 1 46 10 21 8 45 13 56 9 10 -3
18 -1 18 5 0 6 21 11 49 11 35 0 51 4 55 16 4 10 13 13 27 9 13 -5 25 -2 29 6
5 7 24 12 44 11 20 -1 36 3 36 8 0 6 20 10 44 10 25 0 48 5 51 10 3 6 19 10
35 10 16 0 32 5 35 10 3 6 19 10 35 10 16 0 32 5 35 10 3 6 21 10 40 10 19 0
37 5 40 10 3 6 21 10 40 10 19 0 37 5 41 11 3 6 18 9 32 6 15 -3 32 1 40 10 8
8 24 12 35 9 12 -3 27 -1 33 5 7 6 28 11 46 11 18 1 41 6 51 13 10 7 27 10 39
7 11 -2 23 0 27 6 4 7 20 13 37 15 16 2 36 7 43 12 8 4 31 8 53 8 21 0 41 4
44 8 3 5 18 9 35 9 16 0 29 5 29 10 0 6 15 10 34 10 19 0 38 5 41 10 3 6 21
10 40 10 19 0 37 5 40 11 4 5 12 8 18 6 7 -2 28 2 47 10 19 8 44 12 56 9 14
-4 24 0 28 10 4 10 16 15 33 13 16 -2 39 3 52 10 12 7 32 11 42 8 10 -3 19 -1
19 4 0 5 13 9 29 9 16 0 42 7 57 15 16 8 36 12 46 9 9 -2 19 0 23 6 3 5 21 10
40 10 19 0 37 5 40 10 3 6 19 10 34 10 15 0 31 3 35 7 3 4 16 8 28 10 12 2 26
7 32 12 6 4 31 11 56 15 25 4 55 9 68 11 13 2 29 8 35 14 7 5 22 8 33 5 12 -3
26 1 33 10 9 11 22 14 38 10 16 -4 28 -2 33 7 5 7 25 13 44 13 20 0 36 3 36 7
0 4 16 10 35 13 19 4 36 12 36 19 1 7 3 23 4 37 17 141 18 130 -9 130 -14 0
-28 -4 -31 -10z"/>
<path d="M4246 5811 c-3 -5 -23 -11 -43 -14 -21 -3 -63 -11 -93 -17 -30 -6
-71 -13 -90 -17 -19 -3 -40 -9 -46 -14 -7 -5 -25 -9 -40 -7 -16 1 -46 -4 -67
-11 -21 -7 -47 -11 -58 -8 -10 3 -19 1 -19 -4 0 -5 -25 -9 -55 -9 -30 0 -55
-4 -55 -10 0 -5 -20 -10 -44 -10 -25 0 -46 -5 -48 -12 -2 -6 -20 -12 -39 -12
-18 -1 -39 -5 -45 -9 -11 -6 -49 -12 -166 -24 -32 -3 -58 -9 -58 -14 0 -5 -18
-9 -39 -9 -22 0 -43 -4 -46 -10 -3 -5 -24 -10 -45 -10 -21 0 -41 -4 -45 -10
-3 -5 -26 -9 -51 -8 -25 0 -51 -5 -57 -11 -6 -6 -28 -11 -48 -11 -21 0 -40 -4
-43 -9 -6 -9 -114 -24 -163 -22 -18 0 -35 -4 -38 -9 -3 -6 -21 -10 -39 -10
-19 0 -46 -6 -61 -14 -15 -8 -34 -12 -41 -9 -8 3 -20 1 -27 -5 -11 -9 -39 -14
-155 -28 -29 -4 -55 -10 -58 -15 -3 -5 -18 -9 -34 -9 -16 0 -32 -4 -35 -10 -3
-5 -21 -10 -40 -10 -19 0 -37 -4 -40 -10 -3 -5 -30 -10 -60 -10 -30 0 -56 -4
-60 -9 -3 -5 -21 -7 -40 -4 -24 4 -39 1 -51 -12 -12 -11 -28 -16 -51 -13 -20
2 -32 0 -30 -6 5 -15 43 -24 104 -25 28 -1 55 -5 58 -11 3 -5 28 -10 55 -10
27 0 51 -4 55 -10 3 -5 30 -9 60 -9 29 1 59 -3 67 -7 7 -4 38 -10 68 -11 30
-2 56 -7 58 -11 1 -5 16 -6 32 -4 18 3 40 -3 56 -13 18 -11 36 -15 58 -11 20
4 39 1 52 -9 12 -8 41 -14 65 -13 24 1 76 -4 114 -11 39 -7 88 -14 110 -17 22
-3 49 -9 60 -14 11 -5 47 -11 80 -14 93 -8 149 -17 160 -27 5 -5 26 -9 47 -9
21 0 38 -4 38 -8 0 -15 -24 -32 -46 -32 -13 0 -26 -4 -29 -10 -3 -5 -17 -10
-30 -10 -13 0 -27 -4 -30 -10 -3 -5 -17 -10 -30 -10 -13 0 -27 -5 -31 -11 -3
-6 -14 -9 -23 -6 -10 2 -25 -1 -35 -8 -9 -7 -25 -11 -35 -8 -9 2 -23 -2 -30
-11 -7 -8 -18 -13 -26 -10 -7 3 -16 1 -20 -5 -3 -6 -17 -11 -30 -11 -13 0 -27
-4 -30 -10 -3 -5 -17 -10 -31 -10 -13 0 -24 -4 -24 -10 0 -5 -11 -10 -25 -10
-14 0 -25 -4 -25 -10 0 -5 -13 -10 -29 -10 -17 0 -32 -4 -35 -9 -3 -4 -27 -11
-53 -15 -82 -12 -107 -18 -158 -40 -54 -24 -96 -35 -111 -29 -8 3 -23 -2 -33
-11 -11 -10 -25 -16 -33 -15 -7 2 -23 -2 -36 -9 -12 -7 -45 -16 -73 -19 -27
-3 -52 -10 -55 -14 -3 -5 -18 -9 -33 -9 -15 0 -31 -3 -35 -7 -3 -4 -14 -8 -24
-9 -9 -2 -18 -8 -20 -13 -2 -6 -19 -11 -37 -11 -19 0 -37 -4 -40 -10 -3 -5
-19 -10 -34 -10 -15 0 -31 -3 -35 -7 -4 -4 -19 -9 -34 -11 -15 -2 -29 -8 -33
-13 -3 -6 -12 -9 -20 -8 -8 1 -27 -3 -43 -10 -16 -6 -35 -10 -43 -7 -7 3 -17
-4 -23 -14 -10 -18 -22 -20 -125 -20 -63 0 -115 -4 -115 -9 0 -5 4 -11 8 -13
4 -1 24 -24 44 -50 l36 -48 16 35 c21 44 55 69 73 53 7 -6 13 -16 13 -22 0 -6
9 -22 19 -36 16 -21 21 -22 35 -11 23 19 30 8 14 -21 -27 -49 -40 -46 -69 18
-12 24 -26 44 -33 44 -6 0 -20 -19 -32 -42 -25 -51 -37 -56 -61 -28 -10 12
-31 36 -46 53 l-28 32 -17 -25 c-21 -30 -62 -70 -73 -70 -4 0 -18 18 -30 40
-25 45 -47 48 -65 12 -6 -13 -22 -31 -34 -39 -22 -16 -24 -15 -47 11 -12 15
-23 34 -23 42 0 8 -4 14 -9 14 -12 0 -41 -29 -41 -40 0 -5 -13 -16 -30 -25
-29 -15 -30 -15 -56 25 -30 45 -39 48 -54 20 -6 -11 -18 -20 -27 -20 -24 0
-14 -161 13 -196 l19 -26 349 1 c211 1 354 5 361 11 7 5 14 7 18 4 3 -3 14 3
24 13 16 16 18 32 15 130 -2 106 -4 113 -27 131 -14 11 -25 23 -25 26 0 3 23
6 50 6 28 0 50 5 50 10 0 6 13 10 29 10 17 0 33 5 36 10 3 6 19 10 35 10 16 0
32 4 35 10 3 5 16 10 28 10 38 -1 91 12 114 28 13 8 30 12 38 8 8 -3 15 -1 15
4 0 6 15 10 33 10 17 0 41 7 51 15 11 8 28 13 38 9 10 -3 18 -1 18 4 0 5 26
14 58 21 31 7 67 17 80 22 13 5 34 9 47 9 13 0 27 5 30 10 3 6 19 10 35 10 16
0 32 5 35 10 4 6 14 10 23 9 10 -1 30 3 46 10 16 6 35 10 42 7 7 -3 18 2 25
10 6 8 20 12 29 9 9 -3 23 2 30 10 7 9 23 15 34 13 12 -1 27 1 35 6 7 5 31 9
52 9 22 0 39 4 39 8 0 5 11 9 25 9 14 0 34 5 45 10 11 6 29 15 40 20 11 6 31
10 44 10 14 0 28 5 31 10 3 6 17 10 30 10 13 0 27 5 30 10 3 6 15 10 26 10 10
0 27 4 37 9 31 16 99 34 113 29 8 -3 20 2 28 9 7 8 20 12 28 9 8 -3 21 1 29 9
8 8 41 17 74 21 33 4 63 11 66 15 3 5 18 9 35 9 16 0 29 5 29 10 0 6 12 10 28
10 21 0 24 2 12 10 -8 5 -29 10 -47 10 -17 0 -35 5 -39 11 -3 6 -19 9 -34 6
-15 -3 -39 1 -56 9 -19 10 -42 14 -66 10 -26 -4 -41 -1 -53 10 -11 11 -25 14
-46 10 -17 -3 -39 -1 -50 5 -11 5 -37 12 -57 14 -135 12 -183 19 -188 26 -3 5
-23 9 -44 9 -21 0 -42 5 -45 10 -3 6 -33 10 -65 10 -32 0 -61 4 -64 8 -2 4
-28 9 -56 10 -29 1 -57 5 -64 9 -6 4 -23 6 -38 4 -16 -1 -42 5 -60 13 -17 9
-54 16 -83 16 -28 0 -55 3 -59 7 -4 4 -26 8 -49 9 -23 1 -43 7 -45 13 -2 6
-26 11 -53 11 -35 0 -49 4 -49 14 0 17 47 27 93 19 20 -3 37 -1 41 6 4 6 23
11 42 11 20 0 42 7 50 15 10 9 25 12 44 8 18 -3 36 0 45 7 14 11 39 15 185 27
36 2 69 9 75 14 5 5 28 9 52 9 24 0 43 4 43 9 0 5 26 11 58 14 31 3 84 10 117
17 94 18 186 32 235 35 25 2 54 7 64 11 11 4 38 8 60 8 23 1 44 5 47 9 4 5 39
9 78 9 39 1 74 5 77 9 3 5 27 9 54 9 26 0 50 5 52 11 2 6 29 10 61 10 31 0 59
5 62 10 4 5 37 9 75 9 38 0 72 5 75 10 3 6 28 10 56 10 27 0 49 4 49 9 0 5 24
12 53 15 28 2 75 8 102 13 l50 8 3 53 3 52 -35 0 c-19 0 -37 -4 -40 -9z"/>
<path d="M5000 5632 c-8 -9 -14 -20 -13 -24 2 -4 -11 -19 -27 -35 -17 -15 -30
-34 -30 -41 0 -7 -13 -25 -29 -40 -16 -15 -32 -37 -36 -49 -3 -13 -13 -23 -22
-23 -8 0 -13 -6 -10 -12 2 -7 -9 -28 -24 -46 -26 -29 -39 -72 -23 -72 11 0 48
44 61 73 13 27 25 32 101 40 36 4 43 2 41 -11 -4 -44 2 -82 14 -82 32 1 38 17
37 101 0 46 5 112 12 146 9 49 9 65 -2 77 -16 20 -31 20 -50 -2z m6 -134 c-8
-59 -26 -77 -73 -78 -40 0 -43 19 -8 46 14 10 25 23 25 29 0 19 31 55 47 55
13 0 14 -8 9 -52z"/>
<path d="M4665 5601 c-50 -47 -95 -100 -95 -111 0 -5 -4 -10 -10 -10 -5 0 -14
-18 -20 -40 -6 -22 -15 -40 -20 -40 -4 0 -8 -21 -8 -46 0 -37 5 -52 27 -75 33
-34 57 -36 106 -9 19 11 38 20 43 19 4 0 9 7 10 16 3 14 -1 15 -20 10 -12 -4
-27 -11 -33 -15 -5 -4 -22 -10 -37 -14 -71 -17 -76 81 -8 169 4 6 11 21 15 33
16 55 125 130 125 88 0 -20 -19 -69 -29 -76 -5 -3 -11 -15 -15 -26 -5 -17 -2
-23 14 -27 14 -4 23 0 27 11 4 9 9 19 13 22 3 3 12 24 18 48 7 23 17 42 22 42
21 0 8 36 -17 48 -43 19 -75 14 -108 -17z"/>
<path d="M4483 5598 c-4 -7 -6 -20 -5 -29 2 -9 -4 -21 -12 -28 -8 -7 -12 -19
-9 -27 3 -8 -4 -34 -16 -59 -12 -25 -21 -51 -21 -59 0 -8 -4 -18 -10 -21 -5
-3 -10 -15 -10 -26 0 -14 -6 -19 -17 -17 -15 3 -18 17 -21 88 -2 50 2 93 9
106 14 28 8 58 -13 62 -20 4 -58 -31 -58 -54 0 -8 -12 -41 -27 -72 -15 -31
-26 -63 -25 -69 2 -7 -1 -13 -6 -13 -6 0 -13 -17 -17 -37 -3 -21 -13 -49 -22
-61 -18 -29 -13 -35 21 -26 19 4 26 13 26 30 0 13 5 24 10 24 6 0 10 11 10 23
0 13 3 27 7 31 4 4 8 16 8 26 0 24 20 26 21 2 0 -9 6 -27 13 -40 7 -13 10 -30
7 -37 -3 -9 6 -19 22 -27 37 -18 69 -2 83 39 6 18 15 33 21 33 6 0 8 9 5 20
-3 11 -1 22 4 25 10 6 34 85 30 99 -1 5 2 12 6 15 11 8 33 59 33 76 0 18 -36
20 -47 3z"/>
<path d="M3883 5593 c-7 -2 -13 -10 -13 -17 0 -7 -13 -25 -30 -41 -16 -16 -30
-35 -30 -42 0 -7 -4 -13 -10 -13 -5 0 -10 -7 -10 -16 0 -8 -13 -29 -29 -45
-16 -16 -31 -37 -33 -47 -2 -9 -10 -17 -18 -17 -12 0 -14 12 -12 60 2 33 7 62
12 65 4 3 7 24 7 47 -1 35 -5 42 -25 46 -16 3 -25 -1 -29 -12 -17 -54 -47
-121 -53 -121 -5 0 -11 -18 -15 -41 -4 -22 -14 -43 -22 -46 -8 -3 -12 -12 -9
-20 3 -8 -1 -24 -9 -36 -12 -20 -11 -67 2 -67 12 0 42 48 43 68 0 12 4 22 9
22 5 0 11 12 13 27 2 14 9 29 17 31 11 4 13 -3 8 -30 -6 -39 6 -58 35 -58 23
0 49 26 83 84 15 25 31 46 36 46 12 0 12 -25 0 -48 -22 -41 -29 -87 -15 -101
10 -11 44 35 44 61 0 15 5 28 10 28 6 0 10 9 10 20 0 11 4 28 9 38 5 9 14 36
20 60 7 23 16 42 22 42 6 0 7 5 4 10 -4 6 -1 17 5 25 7 8 10 22 6 30 -6 15
-12 17 -33 8z"/>
<path d="M4064 5535 c-20 -30 -41 -55 -45 -55 -5 0 -9 -6 -9 -13 0 -13 -21
-44 -52 -78 -10 -11 -18 -23 -18 -28 0 -6 -13 -25 -30 -43 -36 -40 -38 -58 -5
-58 18 0 26 7 31 24 3 14 12 27 21 30 8 3 12 10 8 15 -7 13 51 24 96 18 32 -3
34 -6 31 -35 -2 -22 2 -34 12 -38 35 -13 45 13 49 134 3 64 8 132 12 150 7 32
7 32 -29 32 -32 0 -39 -5 -72 -55z m41 -62 c-1 -21 -3 -50 -4 -66 -1 -26 -3
-27 -51 -26 -27 1 -50 4 -50 7 0 15 89 122 101 122 4 0 6 -17 4 -37z"/>
<path d="M3422 5496 c-13 -13 -29 -32 -35 -43 -26 -44 -69 -105 -87 -123 -18
-18 -28 -60 -14 -60 11 0 34 29 34 43 0 41 82 51 88 11 2 -12 12 -30 23 -40
19 -17 19 -16 19 64 0 44 5 84 10 87 17 10 9 86 -9 84 -3 0 -17 -11 -29 -23z
m8 -79 c0 -13 -6 -32 -14 -43 -14 -18 -16 -18 -33 -1 -17 17 -17 18 12 42 37
30 35 30 35 2z"/>
<path d="M3057 5472 c-15 -15 -27 -33 -27 -40 0 -6 -9 -17 -20 -24 -11 -7 -20
-19 -20 -26 0 -8 -16 -29 -36 -48 -24 -24 -34 -41 -29 -52 5 -13 13 -8 43 27
34 40 41 43 70 36 28 -6 32 -10 32 -41 0 -38 7 -42 26 -16 9 11 13 49 14 115
0 108 -7 117 -53 69z m13 -76 c0 -31 -3 -35 -25 -33 -14 1 -25 7 -24 12 2 9
40 54 47 55 1 0 2 -15 2 -34z"/>
<path d="M3212 5488 c-7 -7 -12 -20 -12 -30 0 -10 -5 -18 -11 -18 -6 0 -8 -7
-5 -16 3 -8 -1 -26 -10 -40 -9 -13 -14 -24 -10 -24 3 0 -3 -16 -14 -35 -11
-20 -20 -40 -20 -45 0 -6 25 -10 56 -10 34 0 53 4 49 10 -3 6 -17 10 -31 10
-13 0 -25 6 -25 13 -3 28 3 53 15 62 7 6 11 15 9 22 -2 6 1 14 6 18 6 3 11 13
11 21 0 9 7 22 15 31 17 16 16 34 -1 40 -5 2 -15 -2 -22 -9z"/>
<path d="M1257 5132 c-25 -27 -21 -36 5 -12 12 11 19 22 16 25 -2 3 -12 -3
-21 -13z"/>
<path d="M655 5070 c-9 -16 -19 -30 -23 -30 -4 0 -13 -12 -20 -27 -22 -52 -59
-111 -86 -138 -14 -14 -26 -32 -26 -40 0 -7 -11 -22 -25 -33 -27 -21 -34 -62
-11 -62 7 0 21 12 31 26 35 54 52 64 110 64 l55 0 0 -35 c0 -32 3 -35 28 -35
l27 0 1 135 c0 91 5 139 13 149 21 25 4 56 -29 56 -23 0 -33 -7 -45 -30z m7
-127 c-2 -38 -10 -71 -16 -75 -16 -11 -76 -10 -76 2 0 20 34 80 46 80 6 0 14
14 18 30 3 17 12 30 20 30 11 0 13 -14 8 -67z"/>
<path d="M1710 5089 c0 -5 -7 -9 -15 -9 -24 0 -55 -32 -72 -72 -8 -21 -20 -38
-25 -38 -6 0 -8 -9 -5 -20 3 -11 -1 -27 -9 -34 -21 -22 -17 -47 13 -78 29 -31
59 -35 88 -15 24 18 11 39 -18 28 -39 -13 -57 -3 -57 35 0 19 4 42 9 52 5 9
17 35 26 57 25 58 44 76 66 65 15 -8 16 -15 8 -42 -12 -44 -12 -48 6 -48 8 0
15 9 15 19 0 11 5 23 10 26 6 3 10 18 10 33 0 19 -8 30 -25 39 -14 6 -25 7
-25 2z"/>
<path d="M1823 5057 c-13 -13 -23 -29 -23 -36 0 -8 -7 -19 -17 -26 -22 -16
-31 -139 -11 -151 28 -17 92 -12 116 10 61 54 81 164 39 204 -30 28 -75 27
-104 -1z m91 -21 c29 -26 34 -54 11 -62 -8 -4 -15 -12 -15 -19 0 -6 -8 -27
-17 -46 -24 -51 -60 -68 -94 -46 -20 12 -27 67 -9 67 6 0 10 12 10 28 0 16 8
32 20 40 11 7 20 18 20 25 0 17 20 37 36 37 7 0 24 -11 38 -24z"/>
<path d="M800 5050 c0 -5 16 -10 35 -10 24 0 35 -5 35 -15 0 -8 -4 -15 -9 -15
-5 0 -12 -20 -15 -45 -4 -25 -13 -50 -20 -57 -7 -7 -16 -28 -19 -47 -6 -28 -4
-32 9 -27 9 3 17 6 20 6 2 0 1 6 -2 14 -3 7 1 16 9 19 10 3 13 14 10 31 -3 15
-1 26 6 26 6 0 11 9 11 20 0 11 4 28 9 38 5 9 12 25 15 35 4 12 16 17 46 17
22 0 40 5 40 10 0 6 -37 10 -90 10 -53 0 -90 -4 -90 -10z"/>
<path d="M1011 5051 c-7 -5 -10 -14 -6 -21 4 -6 3 -22 -3 -33 -5 -12 -15 -42
-21 -67 -7 -25 -17 -55 -23 -67 -17 -35 -4 -53 42 -53 22 0 40 5 40 10 0 6 -8
10 -19 10 -34 0 -46 26 -28 62 8 17 13 37 10 45 -3 7 0 13 6 13 6 0 11 14 11
30 0 17 5 30 10 30 6 0 10 11 10 25 0 27 -6 30 -29 16z"/>
<path d="M1172 5040 c-6 -11 -12 -26 -12 -33 0 -7 -9 -32 -20 -55 -11 -22 -20
-53 -20 -67 0 -14 -4 -25 -10 -25 -5 0 -10 -11 -10 -25 0 -24 3 -25 55 -25 42
0 55 3 55 15 0 10 -10 15 -34 15 -19 0 -38 5 -42 12 -10 15 24 38 58 38 15 0
28 5 28 10 0 6 -13 10 -30 10 -30 0 -42 21 -20 35 6 4 8 15 5 24 -3 10 1 24 9
30 8 7 12 19 9 27 -4 11 5 14 42 14 28 0 44 4 40 10 -3 6 -25 10 -48 10 -31 0
-45 -5 -55 -20z"/>
<path d="M1345 5050 c-3 -5 3 -10 13 -10 26 0 37 -50 15 -67 -8 -6 -12 -16 -8
-22 6 -11 -12 -78 -27 -95 -4 -6 -8 -17 -8 -25 0 -10 11 -3 29 19 16 19 27 40
24 47 -3 7 0 19 6 26 6 8 12 22 14 33 2 10 6 26 10 34 3 8 8 23 11 33 3 11 16
17 36 17 16 0 30 5 30 10 0 6 -30 10 -69 10 -39 0 -73 -4 -76 -10z"/>
<path d="M1549 5033 c-6 -16 -17 -39 -24 -53 -7 -14 -16 -42 -20 -63 -4 -20
-11 -40 -16 -43 -12 -7 -11 -54 1 -54 6 0 10 9 10 20 0 11 5 20 10 20 6 0 10
7 10 15 0 8 5 15 11 15 6 0 9 10 8 23 -1 12 4 36 11 52 19 46 29 95 19 95 -5
0 -14 -12 -20 -27z"/>
<path d="M1354 4557 c-8 -5 -24 -7 -36 -5 -27 4 -34 -15 -13 -35 8 -9 15 -20
15 -26 0 -24 40 -9 69 26 17 21 31 41 31 44 0 9 -48 6 -66 -4z"/>
<path d="M990 4544 c0 -4 9 -22 21 -40 18 -29 23 -32 43 -22 24 10 49 51 39
62 -8 8 -103 8 -103 0z"/>
<path d="M1140 4542 c0 -4 5 -13 12 -20 7 -7 8 -12 4 -12 -5 0 -3 -7 4 -15 19
-22 46 -18 64 10 25 38 20 45 -34 45 -27 0 -50 -4 -50 -8z"/>
<path d="M817 4522 c-11 -12 -13 -22 -5 -35 9 -17 11 -16 34 8 24 26 24 45 0
45 -7 0 -20 -8 -29 -18z"/>
<path d="M922 4531 c-8 -5 -12 -16 -10 -26 2 -14 7 -13 27 9 24 26 13 37 -17
17z"/>
<path d="M853 4441 c2 -10 1 -25 -3 -32 -7 -10 -11 -10 -24 1 -9 7 -18 11 -21
9 -2 -3 -5 -47 -6 -99 -1 -88 0 -95 17 -92 10 2 25 13 32 23 8 11 19 25 25 31
21 18 7 178 -14 178 -6 0 -9 -9 -6 -19z"/>
<path d="M853 4214 c-40 -42 -41 -44 -22 -55 39 -20 95 45 72 85 -6 10 -19 2
-50 -30z"/>
<path d="M1700 4235 c-9 -11 -27 -14 -66 -11 -61 4 -72 -1 -44 -21 11 -8 20
-23 20 -34 0 -14 7 -19 25 -19 53 0 112 50 99 84 -8 20 -18 20 -34 1z"/>
<path d="M1253 4120 c-1 -72 1 -80 18 -80 17 0 19 8 19 80 0 71 -2 80 -18 80
-17 0 -19 -9 -19 -80z"/>
<path d="M1319 4196 c-6 -6 -1 -125 6 -144 3 -8 12 -12 21 -10 13 2 16 17 16
78 0 66 -2 75 -19 78 -10 2 -21 1 -24 -2z"/>
<path d="M1399 4198 c0 -2 -1 -38 -2 -81 -2 -73 -1 -78 18 -75 18 3 20 12 23
81 3 72 1 77 -18 77 -11 0 -20 -1 -21 -2z"/>
<path d="M1477 4193 c-3 -5 -7 -39 -8 -78 -4 -64 -2 -70 16 -73 19 -3 20 3 20
78 0 55 -4 80 -12 80 -6 0 -14 -3 -16 -7z"/>
<path d="M1046 4174 c-3 -9 -6 -42 -6 -75 0 -52 2 -59 20 -59 18 0 20 7 20 75
0 57 -3 75 -14 75 -8 0 -17 -7 -20 -16z"/>
<path d="M1116 4174 c-3 -9 -6 -42 -6 -75 0 -50 3 -59 18 -59 14 0 17 11 18
75 1 55 -2 75 -11 75 -7 0 -16 -7 -19 -16z"/>
<path d="M1180 4138 c0 -29 -3 -63 -7 -76 -5 -21 -3 -23 22 -20 27 3 27 4 27
73 0 64 -2 70 -21 73 -19 3 -21 -1 -21 -50z"/>
<path d="M1540 4125 c0 -68 12 -83 32 -40 8 18 14 22 19 13 12 -19 18 -6 12
25 -3 15 -11 27 -18 27 -7 0 -15 9 -18 20 -3 11 -10 20 -16 20 -7 0 -11 -25
-11 -65z"/>
<path d="M970 4150 c-19 -45 3 -110 36 -110 11 0 14 17 14 70 0 62 -2 70 -19
70 -11 0 -23 -12 -31 -30z"/>
<path d="M914 4090 c4 -43 14 -70 34 -93 25 -28 34 2 11 34 -11 15 -26 43 -34
61 l-15 33 4 -35z"/>
<path d="M1570 4040 c-11 -11 -27 -20 -35 -20 -22 0 -18 -28 5 -35 25 -8 50
10 50 36 0 11 5 19 10 19 6 0 10 5 10 10 0 16 -18 12 -40 -10z"/>
<path d="M1006 3984 c-4 -10 -3 -21 2 -26 10 -10 116 -10 327 -1 132 7 160 11
160 23 0 13 -35 15 -241 18 -219 2 -242 1 -248 -14z"/>
<path d="M990 3910 c0 -5 9 -25 19 -44 11 -19 17 -37 13 -41 -3 -3 -2 -9 3
-13 15 -10 35 -50 35 -67 0 -8 5 -15 10 -15 6 0 10 -9 10 -20 0 -11 4 -20 10
-20 5 0 15 -20 21 -44 6 -25 20 -52 30 -62 10 -9 19 -25 19 -35 0 -10 4 -20
10 -24 5 -3 7 -11 4 -18 -6 -16 39 -42 60 -34 12 5 13 11 3 36 -6 18 -14 26
-18 19 -10 -16 -27 -1 -34 32 -4 16 -11 32 -16 35 -5 4 -9 18 -9 32 0 31 -29
94 -51 110 -20 15 -44 95 -36 122 4 16 -4 25 -34 41 -45 23 -49 24 -49 10z"/>
<path d="M1480 3905 c0 -8 2 -15 4 -15 2 0 6 7 10 15 3 8 1 15 -4 15 -6 0 -10
-7 -10 -15z"/>
<path d="M1315 3899 c-57 -5 -56 -6 28 -7 86 -2 113 2 60 9 -16 2 -55 1 -88
-2z"/>
<path d="M1460 3816 c0 -14 5 -26 10 -26 6 0 10 9 10 19 0 11 -4 23 -10 26 -6
4 -10 -5 -10 -19z"/>
<path d="M1440 3758 c0 -9 5 -20 10 -23 13 -8 13 5 0 25 -8 13 -10 13 -10 -2z"/>
<path d="M1405 3590 c3 -5 8 -10 11 -10 2 0 4 5 4 10 0 6 -5 10 -11 10 -5 0
-7 -4 -4 -10z"/>
<path d="M1380 3521 c0 -11 5 -23 10 -26 6 -4 10 5 10 19 0 14 -4 26 -10 26
-5 0 -10 -9 -10 -19z"/>
<path d="M1275 3450 c-65 -4 -90 -9 -90 -18 0 -10 27 -14 108 -16 70 -1 107 2
107 9 0 22 -38 30 -125 25z"/>
<path d="M1270 3383 c-77 -4 -103 -14 -83 -34 14 -14 182 -13 200 2 17 14 -1
40 -26 37 -9 -1 -50 -4 -91 -5z"/>
<path d="M1291 3310 c-64 -4 -86 -9 -94 -22 -8 -12 -7 -21 3 -33 11 -13 28
-15 89 -12 88 5 111 12 111 37 0 29 -21 35 -109 30z"/>
<path d="M1291 3223 c-50 -4 -108 -32 -105 -51 1 -4 -1 -13 -3 -20 -3 -7 2
-21 12 -32 15 -16 17 -38 16 -140 -1 -78 2 -120 8 -120 7 0 11 -26 11 -62 0
-35 3 -80 6 -101 6 -32 10 -37 28 -31 31 9 33 14 12 26 -16 9 -18 19 -11 107
14 212 23 279 36 286 21 14 48 -16 52 -58 3 -37 4 -36 5 14 2 42 7 60 22 74
11 10 20 29 20 42 0 28 -28 74 -44 71 -6 -1 -35 -3 -65 -5z"/>
<path d="M1354 2825 c0 -88 2 -123 3 -77 2 46 2 118 0 160 -1 42 -3 5 -3 -83z"/>
<path d="M5768 1002 l-38 -57 32 -3 c27 -3 40 5 92 57 l61 61 -55 0 -55 0 -37
-58z"/>
<path d="M3280 785 l0 -245 50 0 50 0 0 245 0 245 -50 0 -50 0 0 -245z"/>
<path d="M3960 785 l0 -245 49 0 c27 0 51 5 53 10 2 7 17 5 42 -5 72 -30 154
3 193 79 23 43 22 150 -2 199 -34 71 -104 94 -178 58 -24 -11 -46 -21 -50 -21
-4 0 -7 38 -7 85 l0 85 -50 0 -50 0 0 -245z m226 4 c29 -32 26 -120 -6 -154
-20 -22 -32 -25 -70 -23 l-45 3 -3 85 c-2 71 0 87 14 97 28 20 88 16 110 -8z"/>
<path d="M5420 785 l0 -245 50 0 50 0 0 245 0 245 -50 0 -50 0 0 -245z"/>
<path d="M6340 985 l0 -45 60 0 60 0 0 45 0 45 -60 0 -60 0 0 -45z"/>
<path d="M8490 785 l0 -245 50 0 50 0 0 245 0 245 -50 0 -50 0 0 -245z"/>
<path d="M2958 1007 c-60 -17 -110 -56 -134 -104 -22 -47 -31 -171 -15 -224
35 -117 176 -176 316 -132 l60 19 3 57 3 57 -47 -30 c-81 -51 -168 -37 -210
34 -25 42 -24 140 1 183 41 70 135 82 215 29 l40 -26 0 55 c0 54 -1 57 -33 70
-50 21 -145 27 -199 12z"/>
<path d="M7719 1007 c-94 -27 -137 -81 -126 -160 7 -55 48 -91 124 -112 32 -9
75 -20 95 -26 28 -7 39 -16 44 -36 18 -71 -117 -87 -215 -25 l-51 31 0 -54 c0
-65 7 -70 112 -86 104 -16 180 0 230 50 41 42 53 75 44 124 -11 56 -53 87
-163 116 -91 24 -98 28 -101 53 -7 62 95 78 192 30 l56 -29 0 53 c0 53 0 53
-37 63 -64 18 -155 22 -204 8z"/>
<path d="M4742 983 c-5 -16 -38 -104 -72 -198 -34 -93 -68 -187 -76 -207 l-13
-38 58 0 57 0 15 48 15 47 90 3 90 3 15 -48 15 -48 57 -3 c31 -2 57 1 57 5 0
4 -37 110 -82 235 l-83 228 -67 0 c-63 0 -66 -1 -76 -27z m107 -181 l30 -82
-61 0 c-44 0 -59 3 -55 13 2 6 15 45 28 84 12 40 24 72 25 70 1 -1 16 -39 33
-85z"/>
<path d="M5130 940 c0 -43 -3 -50 -20 -50 -17 0 -20 -7 -20 -40 0 -33 4 -40
19 -40 17 0 19 -10 23 -109 3 -90 7 -113 22 -130 25 -28 90 -44 143 -36 42 6
43 7 43 44 0 36 0 37 -35 33 -56 -7 -65 8 -65 109 l0 89 50 0 50 0 0 40 0 40
-50 0 -50 0 0 50 0 50 -55 0 -55 0 0 -50z"/>
<path d="M6060 940 c0 -43 -3 -50 -20 -50 -17 0 -20 -7 -20 -40 0 -33 4 -40
19 -40 17 0 19 -10 23 -109 3 -90 7 -113 22 -130 25 -28 90 -44 143 -36 42 6
43 7 43 44 0 36 0 37 -35 33 -56 -7 -65 8 -65 109 l0 89 50 0 50 0 0 40 0 40
-50 0 -50 0 0 50 0 50 -55 0 -55 0 0 -50z"/>
<path d="M5732 885 c-54 -17 -80 -39 -103 -90 -35 -77 -19 -167 38 -214 61
-50 177 -63 272 -30 28 10 31 15 31 54 l0 44 -42 -19 c-92 -42 -208 -13 -208
51 0 5 58 9 130 9 147 0 140 -6 119 88 -12 59 -47 95 -104 111 -51 14 -79 13
-133 -4z m120 -82 c36 -33 23 -43 -57 -43 -59 0 -75 3 -75 14 0 40 96 62 132
29z"/>
<path d="M6676 889 c-105 -26 -158 -126 -126 -241 22 -76 131 -129 233 -113
68 12 77 20 77 71 l0 46 -34 -21 c-47 -29 -107 -28 -143 3 -25 21 -28 31 -28
81 0 50 3 60 28 81 35 30 88 32 140 4 l37 -20 0 45 c0 40 -3 47 -27 56 -41 16
-113 19 -157 8z"/>
<path d="M7055 891 c-100 -26 -147 -105 -130 -219 13 -90 111 -152 214 -137
89 13 145 64 156 139 14 91 -18 166 -85 201 -34 18 -116 26 -155 16z m111 -97
c27 -40 29 -113 5 -151 -18 -28 -27 -33 -59 -33 -58 0 -77 26 -77 105 0 78 19
105 76 105 30 0 42 -6 55 -26z"/>
<path d="M8130 894 c-71 -13 -70 -12 -70 -55 0 -35 2 -40 18 -34 9 5 46 10 82
13 55 3 69 1 90 -16 14 -11 22 -23 18 -27 -3 -4 -38 -11 -77 -16 -120 -15
-168 -54 -158 -130 6 -48 28 -74 73 -89 40 -14 86 -6 132 22 l32 20 0 -21 c0
-18 6 -21 50 -21 l50 0 0 141 c0 77 -5 149 -10 160 -6 10 -24 26 -40 34 -29
15 -146 27 -190 19z m140 -229 c0 -24 -6 -37 -19 -45 -29 -15 -87 -12 -101 5
-29 35 13 75 83 75 36 0 37 -1 37 -35z"/>
<path d="M8780 894 c-71 -13 -70 -12 -70 -55 0 -35 2 -40 18 -34 9 5 46 10 82
13 55 3 69 1 90 -16 14 -11 22 -23 18 -27 -3 -4 -38 -11 -77 -16 -120 -15
-168 -54 -158 -130 6 -48 28 -74 73 -89 40 -14 86 -6 132 22 l32 20 0 -21 c0
-18 6 -21 50 -21 l50 0 0 141 c0 77 -5 149 -10 160 -6 10 -24 26 -40 34 -29
15 -146 27 -190 19z m140 -229 c0 -24 -6 -37 -19 -45 -29 -15 -87 -12 -101 5
-29 35 13 75 83 75 36 0 37 -1 37 -35z"/>
<path d="M9319 890 c-14 -4 -38 -15 -52 -25 -26 -17 -27 -17 -27 4 0 19 -6 21
-50 21 l-50 0 0 -175 0 -175 50 0 50 0 0 125 c0 137 4 145 68 145 48 0 57 -21
61 -152 l3 -118 49 0 49 0 0 125 c0 115 2 125 20 135 12 6 35 10 53 8 46 -4
57 -34 57 -160 l0 -108 50 0 50 0 0 144 c0 140 -1 145 -26 175 -39 47 -82 50
-154 13 -53 -27 -61 -28 -72 -15 -14 18 -70 43 -90 42 -7 0 -25 -4 -39 -9z"/>
<path d="M9890 894 c-71 -13 -70 -12 -70 -55 0 -35 2 -40 18 -34 9 5 46 10 82
13 55 3 69 1 90 -16 14 -11 22 -23 18 -27 -3 -4 -38 -11 -77 -16 -120 -15
-168 -54 -158 -130 6 -48 28 -74 73 -89 40 -14 86 -6 132 22 l32 20 0 -21 c0
-18 6 -21 50 -21 l50 0 0 141 c0 77 -5 149 -10 160 -6 10 -24 26 -40 34 -29
15 -146 27 -190 19z m140 -229 c0 -24 -6 -37 -19 -45 -29 -15 -87 -12 -101 5
-29 35 13 75 83 75 36 0 37 -1 37 -35z"/>
<path d="M10429 891 c-14 -5 -38 -16 -52 -26 -26 -17 -27 -17 -27 4 0 19 -6
21 -50 21 l-50 0 0 -175 0 -175 50 0 50 0 0 125 c0 113 2 125 19 135 29 15 87
12 101 -5 7 -8 14 -63 17 -135 l6 -120 48 0 49 0 0 134 c0 74 -4 146 -10 160
-18 47 -93 76 -151 57z"/>
<path d="M10816 889 c-105 -26 -158 -126 -126 -241 22 -76 131 -129 233 -113
68 12 77 20 77 71 l0 46 -34 -21 c-47 -29 -107 -28 -143 3 -25 21 -28 31 -28
81 0 50 3 60 28 81 35 30 88 32 140 4 l37 -20 0 45 c0 40 -3 47 -27 56 -41 16
-113 19 -157 8z"/>
<path d="M11160 894 c-71 -13 -70 -12 -70 -55 0 -35 2 -40 18 -34 9 5 46 10
82 13 55 3 69 1 90 -16 14 -11 22 -23 18 -27 -3 -4 -38 -11 -77 -16 -120 -15
-168 -54 -158 -130 6 -48 28 -74 73 -89 40 -14 86 -6 132 22 l32 20 0 -21 c0
-18 6 -21 50 -21 l50 0 0 141 c0 77 -5 149 -10 160 -6 10 -24 26 -40 34 -29
15 -146 27 -190 19z m140 -229 c0 -24 -6 -37 -19 -45 -29 -15 -87 -12 -101 5
-29 35 13 75 83 75 36 0 37 -1 37 -35z"/>
<path d="M3490 765 c0 -149 14 -195 65 -219 45 -22 74 -20 128 8 44 22 47 22
47 5 0 -16 8 -19 55 -19 l55 0 0 175 0 175 -55 0 -55 0 0 -125 c0 -137 -4
-145 -69 -145 -50 0 -61 28 -61 157 l0 113 -55 0 -55 0 0 -125z"/>
<path d="M6350 715 l0 -175 50 0 50 0 0 175 0 175 -50 0 -50 0 0 -175z"/>
</g>
</svg>
